<?xml version="1.0" standalone="no"?>
<!DOCTYPE svg PUBLIC "-//W3C//DTD SVG 1.1//EN" "http://www.w3.org/Graphics/SVG/1.1/DTD/svg11.dtd" >
<svg xmlns="http://www.w3.org/2000/svg">
<metadata>Generated by IcoMoon</metadata>
<defs>
<font id="icomoon" horiz-adv-x="1024">
<font-face units-per-em="1024" ascent="960" descent="-64" />
<missing-glyph horiz-adv-x="1024" />
<glyph unicode="&#x20;" horiz-adv-x="512" d="" />
<glyph unicode="&#xe900;" d="M304.776 134.080c22.529-17.237 47.268-31.731 73.719-42.982l-41.768-72.346c-11.782-20.403-37.876-27.396-58.284-15.616-20.407 11.785-27.399 37.879-15.617 58.283l41.95 72.661zM645.833 91.238c26.436 11.277 51.162 25.796 73.673 43.059l41.327-71.582c11.785-20.407 4.791-46.502-15.616-58.283-20.407-11.785-46.502-4.791-58.283 15.616l-41.101 71.189z" />
<glyph unicode="&#xe901;" d="M512 64c-188.513 0-341.333 152.819-341.333 341.333 0 188.513 152.82 341.333 341.333 341.333s341.333-152.82 341.333-341.333c0-188.514-152.819-341.333-341.333-341.333zM813.602 821.159l74.637-74.638c24.994-24.994 24.994-65.516 0-90.51-24.99-24.994-65.515-24.994-90.509 0l-74.637 74.638c-24.994 24.994-24.994 65.516 0 90.51s65.515 24.994 90.509 0zM226.075 837.031c24.993 24.994 65.516 24.994 90.51 0s24.993-65.516 0-90.51l-90.51-90.51c-24.994-24.994-65.516-24.994-90.51 0s-24.994 65.516 0 90.51l90.51 90.51z" />
<glyph unicode="&#xe902;" d="M510.421 640h3.605c10.961 0 20.139-8.305 21.227-19.211l19.413-194.123 138.586-79.189c6.647-3.802 10.748-10.867 10.748-18.526v-8.951c0-8.998-7.296-16.294-16.294-16.294-1.446 0-2.889 0.192-4.288 0.576l-197.073 53.747c-9.873 2.692-16.444 12.015-15.659 22.217l18.466 240.058c0.853 11.115 10.125 19.697 21.269 19.697z" />
<glyph unicode="&#xe903;" d="M512 396.8c-75.407 0-136.533 61.129-136.533 136.533s61.126 136.533 136.533 136.533c75.404 0 136.533-61.128 136.533-136.533 0-75.404-61.129-136.533-136.533-136.533zM768 584.533h51.2c28.276 0 51.2-22.924 51.2-51.2s-22.924-51.2-51.2-51.2h-51.2c-28.276 0-51.2 22.924-51.2 51.2s22.924 51.2 51.2 51.2zM650.602 742.526l36.205 36.204c19.995 19.995 52.412 19.995 72.407 0s19.995-52.413 0-72.408l-36.202-36.204c-19.995-19.995-52.415-19.995-72.41 0-19.992 19.995-19.992 52.413 0 72.408zM512 891.733c28.276 0 51.2-22.923 51.2-51.2v-51.2c0-28.277-22.924-51.2-51.2-51.2s-51.2 22.923-51.2 51.2v51.2c0 28.277 22.924 51.2 51.2 51.2zM266.604 778.729c19.995 19.995 52.413 19.995 72.408 0l36.203-36.204c19.995-19.995 19.995-52.413 0-72.408s-52.412-19.995-72.407 0l-36.204 36.204c-19.995 19.995-19.995 52.413 0 72.408z" />
<glyph unicode="&#xe904;" d="M230.303 258.813c-56.424 36.475-93.769 99.936-93.769 172.121 0 113.108 91.692 204.8 204.8 204.8 95.43 0 175.613-65.27 198.349-153.6h83.251c70.694 0 128-57.306 128-128s-57.306-128-128-128h-307.2c-32.83 0-62.774 12.36-85.431 32.679z" />
<glyph unicode="&#xe905;" d="M170.667 704h682.667c23.565 0 42.667-19.103 42.667-42.667v-42.667c0-23.564-19.102-42.667-42.667-42.667h-682.667c-23.564 0-42.667 19.103-42.667 42.667v42.667c0 23.564 19.103 42.667 42.667 42.667zM213.333 490.667h213.333c23.565 0 42.667-19.102 42.667-42.667v-298.667c0-23.565-19.102-42.667-42.667-42.667h-213.333c-23.564 0-42.667 19.102-42.667 42.667v298.667c0 23.565 19.103 42.667 42.667 42.667zM597.333 490.667h213.333c23.565 0 42.667-19.102 42.667-42.667v-298.667c0-23.565-19.102-42.667-42.667-42.667h-213.333c-23.565 0-42.667 19.102-42.667 42.667v298.667c0 23.565 19.102 42.667 42.667 42.667z" />
<glyph unicode="&#xe906;" d="M616.333 867.502c19.605 13.071 46.097 7.773 59.17-11.834 13.069-19.607 7.77-46.097-11.836-59.168l-151.667-101.111-151.667 101.111c-19.606 13.071-24.905 39.561-11.834 59.168s39.562 24.905 59.168 11.834l104.332-69.555 104.333 69.555z" />
<glyph unicode="&#xe907;" glyph-name="country" d="M512 64c212.079 0 384 171.921 384 384 0 212.077-171.921 384-384 384-212.077 0-384-171.923-384-384 0-212.079 171.923-384 384-384zM500.725 64.161c-206.863 5.965-372.725 175.534-372.725 383.839 0 3.548 0.048 7.086 0.144 10.609 28.116-2.685 79.061-8.79 81.462-28.547 3.322-27.329 0-61.49 23.271-71.737s29.921 40.996 49.865 27.329c19.944-13.666 73.136-26.825 73.136-50.985 0-24.157-9.972-61.751 0-68.583 9.97-6.835 49.838-54.659 49.849-61.49 0.014-6.835 14.053-41.583 9.864-54.863-3.469-11.013-20.985-45.206-37.963-60.753 38.507-14.83 79.911-23.52 123.098-24.812v-0.007zM353.396 797.819c48.345 21.954 102.047 34.181 158.604 34.181 149.823 0 279.602-85.802 342.89-210.948 1.414-33.28 1.167-61.751 8.518-72.049 37.423-52.367-91.161-88.386-71.626-167.585 8.6-34.945-85.529-23.856-108.519-56.571-23.004-32.696-79.21-10.727-92.242-4.443-13.033 6.287-62.951-14.662-58.586 20.949 4.336 35.622 34.705 37.713 67.269 52.378 32.553 14.644 79.507 63.348 56.435 69.714-108.626 29.939-145.684 134.803-145.684 134.803-6.516 1.26-4.88 74.131-33.083 76.223-28.228 2.102-43.43-8.377-84.652 0-41.245 8.377-32.55 35.611-39.066 94.273-1.458 13.158-1.388 22.416-0.256 29.074zM895.964 453.245c0.025-1.744 0.036-3.494 0.036-5.245 0-210.804-169.862-381.931-380.18-383.982 208.244 2.102 377.351 175.408 380.144 389.227z" />
<glyph unicode="&#xe908;" glyph-name="customer" d="M512 21.333c235.639 0 426.667 191.027 426.667 426.667 0 235.642-191.027 426.667-426.667 426.667-235.642 0-426.667-191.025-426.667-426.667 0-235.639 191.025-426.667 426.667-426.667zM512 490.667c-47.13 0-85.333 38.204-85.333 85.333 0 47.128 38.204 85.333 85.333 85.333s85.333-38.205 85.333-85.333c0-47.13-38.204-85.333-85.333-85.333zM298.682 256.021c9.188 127.27 101.008 191.979 212.921 191.979 113.493 0 206.733-61.15 213.679-192 0.277-5.214 0-21.333-17.805-21.333h-391.566c-5.945 0-17.73 14.421-17.229 21.355z" />
<glyph unicode="&#xe909;" d="M405.333 789.333h-170.667c-35.346 0-64-28.654-64-64v-170.667c0-35.345 28.654-64 64-64h170.667c35.345 0 64 28.655 64 64v170.667c0 35.346-28.655 64-64 64z" />
<glyph unicode="&#xe90a;" d="M234.667 405.333h170.667c35.345 0 64-28.655 64-64v-170.667c0-35.345-28.655-64-64-64h-170.667c-35.346 0-64 28.655-64 64v170.667c0 35.345 28.654 64 64 64zM618.667 789.333h170.667c35.345 0 64-28.654 64-64v-170.667c0-35.345-28.655-64-64-64h-170.667c-35.345 0-64 28.655-64 64v170.667c0 35.346 28.655 64 64 64zM618.667 405.333h170.667c35.345 0 64-28.655 64-64v-170.667c0-35.345-28.655-64-64-64h-170.667c-35.345 0-64 28.655-64 64v170.667c0 35.345 28.655 64 64 64z" />
<glyph unicode="&#xe90b;" d="M213.333 746.667v-469.333h597.333v469.333h-597.333zM213.333 832h597.333c60.595 0 85.333-30.564 85.333-68.267v-546.133c0-37.705-24.738-68.267-85.333-68.267h-597.333c-60.593 0-85.333 30.562-85.333 68.267v546.133c0 37.703 24.74 68.267 85.333 68.267zM512 192c11.78 0 21.333 9.553 21.333 21.333s-9.553 21.333-21.333 21.333c-11.78 0-21.333-9.553-21.333-21.333s9.553-21.333 21.333-21.333z" />
<glyph unicode="&#xe90c;" d="M213.333 746.667v-469.333h597.333v469.333h-597.333z" />
<glyph unicode="&#xe90d;" d="M576 106.667h-128c-11.78 0-21.333-9.553-21.333-21.333s9.553-21.333 21.333-21.333h128c11.78 0 21.333 9.553 21.333 21.333s-9.553 21.333-21.333 21.333z" />
<glyph unicode="&#xe90e;" d="M149.333 832h64v-704c0-35.346-28.654-64-64-64s-64 28.654-64 64v640c0 35.346 28.654 64 64 64z" />
<glyph unicode="&#xe90f;" d="M298.667 832l544.203-0.002c23.565 0 42.667-19.103 42.667-42.666 0-10.54-3.901-20.708-10.953-28.543l-127.912-142.124 127.912-142.124c15.762-17.516 14.343-44.493-3.172-60.257-7.835-7.051-18.002-10.953-28.543-10.953h-544.203v426.668z" />
<glyph unicode="&#xe910;" d="M486.492 495.273l-255.637-248.068v-120.471h120.471v80.318h77.976v80.312h82.652l87.719 94.728-113.18 113.181z" />
<glyph unicode="&#xe911;" d="M501.629 398.651c-94.093 94.094-94.093 246.649 0 340.743s246.65 94.094 340.744 0c94.094-94.094 94.094-246.649 0-340.743-94.094-94.095-246.65-94.095-340.744 0zM675.027 561.124c23.522-23.524 61.663-23.524 85.185 0s23.522 61.662 0 85.185c-23.522 23.524-61.663 23.524-85.185 0s-23.522-61.662 0-85.185z" />
<glyph unicode="&#xe912;" d="M551.834 274.244l280.943 223.625c27.708 21.943 32.384 62.195 10.441 89.905-3.038 3.837-6.507 7.313-10.338 10.359l-281.041 223.519c-23.322 18.547-56.354 18.547-79.676 0l-281.236-223.672c-27.664-22.001-32.254-62.263-10.253-89.927 3.007-3.78 6.432-7.211 10.21-10.219l6.663-5.308 274.599-218.308c23.33-18.547 56.371-18.534 79.689 0.026z" />
<glyph unicode="&#xe913;" d="M471.74 163.383l-244.073 194.035c-16.657 13.244-40.894 10.475-54.137-6.182-0.102-0.128-0.203-0.256-0.303-0.384-13.117-16.939-10.019-41.301 6.918-54.421 0.061-0.047 0.123-0.094 0.185-0.141l292.728-223.893c22.946-17.549 54.805-17.553 77.751-0.004l292.617 223.718c17.131 13.099 20.403 37.606 7.305 54.741-0.055 0.073-0.115 0.145-0.171 0.218-13.154 16.956-37.564 20.036-54.519 6.882-0.119-0.098-0.243-0.192-0.367-0.29l-244.271-194.274c-23.317-18.543-56.346-18.547-79.663-0.004z" />
<glyph unicode="&#xe914;" d="M325.249 733.754c19.715 12.907 46.16 7.389 59.068-12.326s7.389-46.16-12.326-59.068c-71.843-47.036-115.99-126.907-115.99-214.361 0-141.385 114.615-256 256-256s256 114.615 256 256c0 85.525-42.206 163.853-111.462 211.328-19.439 13.323-24.393 39.88-11.072 59.316 13.325 19.436 39.881 24.392 59.319 11.069 92.228-63.222 148.548-167.744 148.548-281.713 0-188.514-152.819-341.333-341.333-341.333s-341.333 152.819-341.333 341.333c0 116.543 58.904 223.114 154.582 285.754z" />
<glyph unicode="&#xe915;" d="M554.667 789.333c0 23.564-19.102 42.667-42.667 42.667s-42.667-19.103-42.667-42.667v-341.333c0-23.565 19.102-42.667 42.667-42.667s42.667 19.102 42.667 42.667v341.333z" />
<glyph unicode="&#xe916;" d="M640 725.333c0 35.346-28.655 64-64 64s-64-28.654-64-64v-426.667c0-35.345 28.655-64 64-64s64 28.655 64 64v426.667z" />
<glyph unicode="&#xe917;" d="M426.667 512c0 35.346-28.654 64-64 64s-64-28.654-64-64v-213.333c0-35.345 28.654-64 64-64s64 28.655 64 64v213.333z" />
<glyph unicode="&#xe918;" d="M213.333 149.333h640c23.565 0 42.667-19.102 42.667-42.667s-19.102-42.667-42.667-42.667h-682.667c-23.564 0-42.667 19.102-42.667 42.667v682.667c0 23.564 19.103 42.667 42.667 42.667s42.667-19.103 42.667-42.667v-640z" />
<glyph unicode="&#xe919;" d="M853.333 426.667c0 35.345-28.655 64-64 64s-64-28.655-64-64v-128c0-35.345 28.655-64 64-64s64 28.655 64 64v128z" />
<glyph unicode="&#xe91a;" d="M256 874.667h512c23.565 0 42.667-19.103 42.667-42.667v-384c0-23.565-19.102-42.667-42.667-42.667h-512c-23.564 0-42.667 19.102-42.667 42.667v384c0 23.564 19.103 42.667 42.667 42.667zM320 746.667c-11.782 0-21.333-9.551-21.333-21.333s9.551-21.333 21.333-21.333h256c11.78 0 21.333 9.551 21.333 21.333s-9.553 21.333-21.333 21.333h-256zM320 661.333c-11.782 0-21.333-9.551-21.333-21.333s9.551-21.333 21.333-21.333h128c11.78 0 21.333 9.551 21.333 21.333s-9.553 21.333-21.333 21.333h-128z" />
<glyph unicode="&#xe91b;" d="M161.824 679.572l350.176-252.905 350.178 252.905c9.549 6.898 22.886 4.748 29.781-4.804 2.628-3.635 4.041-8.006 4.041-12.49v-427.61c0-47.13-38.204-85.333-85.333-85.333h-597.333c-47.128 0-85.333 38.204-85.333 85.333v427.61c0 11.782 9.551 21.333 21.333 21.333 4.485 0 8.855-1.413 12.491-4.039z" />
<glyph unicode="&#xe91c;" d="M304.593 789.333v-640h414.814v640h-414.814zM334.222 917.333h355.557c59.998 0 88.887-41.865 88.887-106.667v-725.333c0-64.802-28.89-106.667-88.887-106.667h-355.557c-60.001 0-88.889 41.865-88.889 106.667v725.333c0 64.801 28.887 106.667 88.889 106.667z" />
<glyph unicode="&#xe91d;" d="M298.667 789.333v-640h426.667v640h-426.667z" />
<glyph unicode="&#xe91e;" d="M512 21.333c23.565 0 42.667 19.102 42.667 42.667s-19.102 42.667-42.667 42.667c-23.565 0-42.667-19.102-42.667-42.667s19.102-42.667 42.667-42.667z" />
<glyph unicode="&#xe91f;" d="M725.333 448h64c35.345 0 64-28.655 64-64s-28.655-64-64-64h-554.667c-35.346 0-64 28.655-64 64s28.654 64 64 64h64l23.82 214.377c10.73 96.566 92.353 169.623 189.514 169.623s178.786-73.056 189.513-169.623l23.821-214.377z" />
<glyph unicode="&#xe920;" d="M597.333 192c0 47.13-38.204 85.333-85.333 85.333s-85.333-38.204-85.333-85.333c0-47.13 38.204-85.333 85.333-85.333s85.333 38.204 85.333 85.333z" />
<glyph unicode="&#xe921;" d="M213.333 832h42.667c23.564 0 42.667-19.103 42.667-42.667v-682.667c0-23.565-19.103-42.667-42.667-42.667h-42.667c-23.564 0-42.667 19.102-42.667 42.667v682.667c0 23.564 19.103 42.667 42.667 42.667zM426.667 832h42.667c23.565 0 42.667-19.103 42.667-42.667v-682.667c0-23.565-19.102-42.667-42.667-42.667h-42.667c-23.564 0-42.667 19.102-42.667 42.667v682.667c0 23.564 19.103 42.667 42.667 42.667z" />
<glyph unicode="&#xe922;" d="M655.71 820.349l-40.341-13.891c-22.281-7.671-34.125-31.953-26.453-54.233l222.255-645.474c7.671-22.281 31.953-34.125 54.234-26.453l40.341 13.892c22.281 7.671 34.125 31.953 26.453 54.234l-222.255 645.474c-7.671 22.281-31.953 34.123-54.234 26.451z" />
<glyph unicode="&#xe923;" d="M512 490.667c-94.257 0-170.667 76.41-170.667 170.667s76.41 170.667 170.667 170.667c94.255 0 170.667-76.41 170.667-170.667s-76.412-170.667-170.667-170.667z" />
<glyph unicode="&#xe924;" d="M128.028 98.167c16.538 203.635 181.814 307.166 383.26 307.166 204.284 0 372.122-97.843 384.623-307.2 0.499-8.341 0-34.133-32.051-34.133-158.106 0-393.045 0-704.819 0-10.7 0-31.913 23.074-31.012 34.167z" />
<glyph unicode="&#xe925;" d="M249.905 874.667h336.182c15.134 0 29.777-5.362 41.331-15.136l203.247-171.913c14.379-12.16 22.669-30.035 22.669-48.864v-535.642c0-76.399-0.87-81.779-79.236-81.779h-524.192c-78.365 0-79.238 5.38-79.238 81.779v689.776c0 76.397 0.873 81.778 79.238 81.778z" />
<glyph unicode="&#xe926;" d="M597.333 490.667h-298.667c-23.564 0-42.667-19.102-42.667-42.667s19.103-42.667 42.667-42.667h298.667c23.565 0 42.667 19.102 42.667 42.667s-19.102 42.667-42.667 42.667z" />
<glyph unicode="&#xe927;" d="M426.667 320h-128c-23.564 0-42.667-19.102-42.667-42.667s19.103-42.667 42.667-42.667h128c23.565 0 42.667 19.102 42.667 42.667s-19.102 42.667-42.667 42.667z" />
<glyph unicode="&#xe928;" d="M149.333 64h725.333c35.345 0 64 28.655 64 64v469.333c0 35.346-28.655 64-64 64h-448l-109.255 109.255c-12.002 12.002-28.281 18.745-45.255 18.745h-122.824c-35.346 0-64-28.654-64-64v-597.333c0-35.345 28.654-64 64-64z" />
<glyph unicode="&#xe929;" d="M464 245.333c-10.223 0-20.446 4.087-28.621 12.267l-81.779 81.779c-16.355 16.354-16.355 40.887 0 57.242 16.355 16.358 42.933 16.358 57.245 0l53.155-53.154 134.933 134.933c16.354 16.354 40.887 16.354 57.246 0 16.354-16.354 16.354-40.887 0-57.246l-163.558-163.554c-8.175-8.179-18.398-12.267-28.621-12.267z" />
<glyph unicode="&#xe92a;" d="M576 64v128c0 23.565-19.102 42.667-42.667 42.667h-42.667c-23.565 0-42.667-19.102-42.667-42.667v-128h-234.667v725.333c0 47.128 38.205 85.333 85.333 85.333h426.667c47.13 0 85.333-38.205 85.333-85.333v-725.333h-234.667zM384 789.333c-23.564 0-42.667-19.103-42.667-42.667v-42.667c0-23.564 19.103-42.667 42.667-42.667h42.667c23.565 0 42.667 19.103 42.667 42.667v42.667c0 23.564-19.102 42.667-42.667 42.667h-42.667zM597.333 789.333c-23.565 0-42.667-19.103-42.667-42.667v-42.667c0-23.564 19.102-42.667 42.667-42.667h42.667c23.565 0 42.667 19.103 42.667 42.667v42.667c0 23.564-19.102 42.667-42.667 42.667h-42.667zM384 618.667c-23.564 0-42.667-19.103-42.667-42.667v-42.667c0-23.565 19.103-42.667 42.667-42.667h42.667c23.565 0 42.667 19.102 42.667 42.667v42.667c0 23.564-19.102 42.667-42.667 42.667h-42.667zM384 448c-23.564 0-42.667-19.102-42.667-42.667v-42.667c0-23.565 19.103-42.667 42.667-42.667h42.667c23.565 0 42.667 19.102 42.667 42.667v42.667c0 23.565-19.102 42.667-42.667 42.667h-42.667zM597.333 448c-23.565 0-42.667-19.102-42.667-42.667v-42.667c0-23.565 19.102-42.667 42.667-42.667h42.667c23.565 0 42.667 19.102 42.667 42.667v42.667c0 23.565-19.102 42.667-42.667 42.667h-42.667z" />
<glyph unicode="&#xe92b;" d="M640 618.667h-42.667c-23.565 0-42.667-19.103-42.667-42.667v-42.667c0-23.565 19.102-42.667 42.667-42.667h42.667c23.565 0 42.667 19.102 42.667 42.667v42.667c0 23.564-19.102 42.667-42.667 42.667z" />
<glyph unicode="&#xe92c;" d="M170.667 64h682.667c23.565 0 42.667-19.102 42.667-42.667v-17.067c0-14.14-11.46-25.6-25.6-25.6h-716.8c-14.138 0-25.6 11.46-25.6 25.6v17.067c0 23.565 19.103 42.667 42.667 42.667z" />
<glyph unicode="&#xe92d;" d="M583.915 161.783c94.972 37.939 213.222 62.234 354.752 72.883 0 2.88 0 166.345 0 490.397v0c0 11.782-9.553 21.332-21.333 21.332-0.179 0-0.358-0.002-0.538-0.007-120.713-3.056-241.421-31.408-362.129-85.056 0-1.899 0-161.812 0-479.739v0c0-11.785 9.553-21.333 21.333-21.333 2.714 0 5.397 0.516 7.915 1.523z" />
<glyph unicode="&#xe92e;" d="M440.085 161.783c-94.971 37.939-213.222 62.234-354.752 72.883 0 2.88 0 166.345 0 490.397h0.001c0 11.782 9.551 21.332 21.332 21.332 0.18 0 0.36-0.002 0.54-0.007 120.709-3.056 241.418-31.408 362.127-85.056 0-1.899 0-161.812 0-479.739v0c0-11.785-9.549-21.333-21.333-21.333-2.709 0-5.397 0.516-7.915 1.523z" />
<glyph unicode="&#xe92f;" glyph-name="subject" d="M60.383 753.489c416.554-234.501 567.146-495.331 451.767-782.481-297.749 48.636-448.337 309.461-451.767 782.481zM964.053 753.489c-416.555-234.501-567.143-495.331-451.763-782.481 297.745 48.636 448.333 309.461 451.763 782.481zM512.009 874.667c-243.496-411.362-243.496-712.538 0-903.531 233.54 190.993 233.54 492.169 0 903.531z" />
<glyph unicode="&#xe930;" d="M298.667 832h426.667c94.255 0 170.667-76.41 170.667-170.667s-76.412-170.667-170.667-170.667h-426.667c-94.257 0-170.667 76.41-170.667 170.667s76.41 170.667 170.667 170.667zM298.667 576c47.128 0 85.333 38.205 85.333 85.333s-38.205 85.333-85.333 85.333c-47.128 0-85.333-38.205-85.333-85.333s38.205-85.333 85.333-85.333z" />
<glyph unicode="&#xe931;" d="M298.667 405.333h426.667c94.255 0 170.667-76.412 170.667-170.667s-76.412-170.667-170.667-170.667h-426.667c-94.257 0-170.667 76.412-170.667 170.667s76.41 170.667 170.667 170.667zM725.333 149.333c47.13 0 85.333 38.204 85.333 85.333s-38.204 85.333-85.333 85.333c-47.13 0-85.333-38.204-85.333-85.333s38.204-85.333 85.333-85.333z" />
<glyph unicode="&#xe932;" d="M256 576v-256c0-70.694 57.308-128 128-128h256v-34.91c0-60.343-32.747-93.090-93.090-93.090h-325.819c-60.344 0-93.091 32.747-93.091 93.090v325.82c0 60.343 32.747 93.090 93.091 93.090h34.909z" />
<glyph unicode="&#xe933;" d="M434.423 789.333h325.82c60.343 0 93.090-32.747 93.090-93.091v-325.819c0-60.343-32.747-93.090-93.090-93.090h-325.82c-60.343 0-93.090 32.747-93.090 93.090v325.819c0 60.344 32.747 93.091 93.090 93.091z" />
<glyph unicode="&#xe934;" d="M512 21.333c235.639 0 426.667 191.027 426.667 426.667 0 235.642-191.027 426.667-426.667 426.667-235.642 0-426.667-191.025-426.667-426.667 0-235.639 191.025-426.667 426.667-426.667z" />
<glyph unicode="&#xe935;" d="M715.473 626.445c16.081 17.227 43.081 18.158 60.305 2.080 17.229-16.078 18.159-43.077 2.078-60.304l-298.667-319.999c-15.599-16.713-41.6-18.163-58.957-3.285l-149.333 128c-17.891 15.339-19.963 42.274-4.628 60.164s42.271 19.964 60.162 4.629l118.281-101.385 270.758 290.1z" />
<glyph unicode="&#xe936;" d="M109.254 504.235l90.51 90.51c24.993 24.994 65.516 24.994 90.51 0l90.51-90.51c24.994-24.994 24.994-65.515 0-90.509l-90.51-90.509c-24.994-24.994-65.516-24.994-90.51 0l-90.51 90.509c-24.994 24.994-24.994 65.515 0 90.509zM621.252 504.235l90.513 90.51c24.994 24.994 65.515 24.994 90.509 0l90.509-90.51c24.994-24.994 24.994-65.515 0-90.509l-90.509-90.509c-24.994-24.994-65.515-24.994-90.509 0l-90.513 90.509c-24.99 24.994-24.99 65.515 0 90.509z" />
<glyph unicode="&#xe937;" d="M365.254 248.235l90.511 90.509c24.994 24.994 65.515 24.994 90.509 0l90.509-90.509c24.994-24.994 24.994-65.515 0-90.509l-90.509-90.509c-24.994-24.994-65.515-24.994-90.509 0l-90.511 90.509c-24.994 24.994-24.994 65.515 0 90.509zM365.254 760.235l90.511 90.51c24.994 24.994 65.515 24.994 90.509 0l90.509-90.51c24.994-24.993 24.994-65.516 0-90.51l-90.509-90.51c-24.994-24.994-65.515-24.994-90.509 0l-90.511 90.51c-24.994 24.994-24.994 65.516 0 90.51z" />
<glyph unicode="&#xe938;" d="M192 64h725.333c35.345 0 64 28.655 64 64v469.333c0 35.346-28.655 64-64 64h-448l-109.255 109.255c-12.002 12.002-28.281 18.745-45.255 18.745h-122.824c-35.346 0-64-28.654-64-64v-597.333c0-35.345 28.654-64 64-64z" />
<glyph unicode="&#xe939;" d="M106.667 149.333h725.333c35.345 0 64 28.655 64 64v469.333c0 35.346-28.655 64-64 64h-448l-109.255 109.255c-12.002 12.002-28.281 18.745-45.255 18.745h-122.824c-35.346 0-64-28.654-64-64v-597.333c0-35.345 28.654-64 64-64z" />
<glyph unicode="&#xe93a;" d="M768 362.667c-70.694 0-128 57.306-128 128 0 70.692 57.306 128 128 128s128-57.308 128-128c0-70.694-57.306-128-128-128zM384 490.667c-94.257 0-170.667 76.41-170.667 170.667s76.41 170.667 170.667 170.667c94.255 0 170.667-76.41 170.667-170.667s-76.412-170.667-170.667-170.667z" />
<glyph unicode="&#xe93b;" d="M750.985 319.974c145.344-1.591 264.021-75.072 272.951-230.374 0.358-6.255 0-25.6-23.151-25.6h-164.518c0 96.038-31.731 184.67-85.282 255.974zM0.028 98.167c16.538 203.635 181.814 307.166 383.261 307.166 204.282 0 372.12-97.843 384.621-307.2 0.499-8.341 0-34.133-32.051-34.133-158.106 0-393.044 0-704.819 0-10.7 0-31.913 23.074-31.012 34.167z" />
<glyph unicode="&#xe93c;" d="M874.667 362.667c35.345 0 64 28.655 64 64s-28.655 64-64 64c-35.345 0-64-28.655-64-64s28.655-64 64-64z" />
<glyph unicode="&#xe93d;" d="M803.051 915.256l-659.404-176.687c-22.761-6.099-36.269-29.495-30.17-52.256l55.215-206.066c6.099-22.758 29.495-36.267 52.256-30.17l659.407 176.688c22.758 6.099 36.267 29.495 30.17 52.256l-55.215 206.064c-6.101 22.761-29.495 36.269-52.258 30.17z" />
<glyph unicode="&#xe93e;" d="M938.667 561.629c-19.396 9.215-41.097 14.371-64 14.371-82.475 0-149.333-66.859-149.333-149.333s66.859-149.333 149.333-149.333c22.903 0 44.604 5.154 64 14.37v-99.703c0-47.13-38.204-85.333-85.333-85.333h-682.667c-47.128 0-85.333 38.204-85.333 85.333v512c0 47.128 38.205 85.333 85.333 85.333h682.667c47.13 0 85.333-38.205 85.333-85.333v-142.371z" />
<glyph unicode="&#xe93f;" glyph-name="add" d="M696 480h-152v152c0 4.4-3.601 8-8 8h-48c-4.399 0-8-3.6-8-8v-152h-152c-4.4 0-8-3.601-8-8v-48c0-4.399 3.6-8 8-8h152v-152c0-4.399 3.601-8 8-8h48c4.399 0 8 3.601 8 8v152h152c4.399 0 8 3.601 8 8v48c0 4.399-3.601 8-8 8zM512 896c-247.4 0-448-200.6-448-448 0-247.398 200.6-448 448-448 247.398 0 448 200.602 448 448 0 247.4-200.602 448-448 448zM512 75.998c-205.4 0-372 166.601-372 372.002s166.6 372 372 372c205.402 0 372.002-166.6 372.002-372 0-205.402-166.601-372.002-372.002-372.002z" />
<glyph unicode="&#xe940;" glyph-name="alert" d="M512 874.667c-84.386 0-166.878-25.024-237.043-71.906s-124.852-113.519-157.145-191.482c-32.294-77.962-40.743-163.752-24.28-246.516s57.099-158.788 116.77-218.462c59.67-59.669 135.695-100.305 218.46-116.77 82.765-16.461 168.555-8.013 246.515 24.282 77.965 32.294 144.602 86.98 191.484 157.146s71.906 152.657 71.906 237.043c0 56.030-11.038 111.513-32.478 163.278s-52.868 98.801-92.489 138.421c-39.62 39.619-86.656 71.048-138.423 92.49-51.763 21.442-107.247 32.478-163.277 32.478zM512 234.667c-8.439 0-16.687 2.5-23.706 7.189-7.014 4.689-12.484 11.354-15.714 19.149s-4.075 16.375-2.428 24.653c1.647 8.277 5.709 15.881 11.678 21.845 5.969 5.969 13.568 10.031 21.845 11.678s16.858 0.802 24.653-2.428c7.795-3.23 14.46-8.7 19.149-15.714 4.689-7.019 7.189-15.266 7.189-23.706 0-11.315-4.497-22.17-12.497-30.17s-18.854-12.497-30.17-12.497zM554.667 405.333c0-11.315-4.497-22.17-12.497-30.17s-18.854-12.497-30.17-12.497c-11.315 0-22.17 4.497-30.17 12.497s-12.497 18.854-12.497 30.17v213.333c0 11.316 4.497 22.168 12.497 30.17s18.854 12.497 30.17 12.497c11.315 0 22.17-4.495 30.17-12.497s12.497-18.854 12.497-30.17v-213.333z" />
<glyph unicode="&#xe941;" glyph-name="arrow-left" d="M374.656 662.656c2.98-2.973 5.344-6.504 6.958-10.391s2.444-8.055 2.444-12.265c0-4.209-0.83-8.377-2.444-12.265s-3.978-7.419-6.958-10.391l-169.408-169.344 169.408-169.344c2.975-2.974 5.335-6.507 6.945-10.394s2.439-8.055 2.439-12.262c0-4.207-0.829-8.375-2.439-12.262s-3.97-7.42-6.945-10.394c-2.975-2.974-6.508-5.333-10.395-6.946-3.887-1.609-8.054-2.436-12.261-2.436s-8.374 0.828-12.262 2.436c-3.887 1.613-7.419 3.972-10.394 6.946l-192 192c-2.98 2.974-5.344 6.502-6.958 10.394-1.613 3.887-2.444 8.055-2.444 12.262 0 4.211 0.83 8.375 2.444 12.267 1.613 3.887 3.977 7.415 6.958 10.389l192 192c2.973 2.98 6.504 5.344 10.391 6.958s8.055 2.444 12.265 2.444c4.209 0 8.377-0.83 12.265-2.444s7.419-3.977 10.391-6.958zM160 448c0 8.486 3.372 16.627 9.373 22.626 6.001 6.003 14.141 9.374 22.627 9.374h672c8.486 0 16.627-3.371 22.626-9.374 6.003-5.999 9.374-14.14 9.374-22.626s-3.371-16.627-9.374-22.626c-5.999-6.003-14.14-9.374-22.626-9.374h-672c-8.487 0-16.626 3.371-22.627 9.374-6.001 5.999-9.373 14.14-9.373 22.626z" />
<glyph unicode="&#xe942;" glyph-name="arrow-right" d="M649.344 662.656c2.974 2.98 6.502 5.344 10.389 6.958 3.891 1.613 8.055 2.444 12.267 2.444 4.207 0 8.375-0.83 12.262-2.444 3.891-1.613 7.42-3.977 10.394-6.958l192-192c2.978-2.974 5.346-6.502 6.959-10.389 1.613-3.891 2.441-8.055 2.441-12.267 0-4.207-0.828-8.375-2.441-12.262-1.613-3.891-3.981-7.42-6.959-10.394l-192-192c-6.007-6.007-14.157-9.382-22.656-9.382s-16.649 3.375-22.656 9.382c-6.007 6.007-9.382 14.157-9.382 22.656s3.375 16.649 9.382 22.656l169.408 169.344-169.408 169.344c-2.978 2.973-5.346 6.504-6.959 10.391s-2.441 8.055-2.441 12.265c0 4.209 0.828 8.377 2.441 12.265s3.981 7.419 6.959 10.391zM128 448c0 8.486 3.372 16.627 9.373 22.626 6.001 6.003 14.141 9.374 22.627 9.374h672c8.486 0 16.627-3.371 22.626-9.374 6.003-5.999 9.374-14.14 9.374-22.626s-3.371-16.627-9.374-22.626c-5.999-6.003-14.14-9.374-22.626-9.374h-672c-8.487 0-16.626 3.371-22.627 9.374-6.001 5.999-9.373 14.14-9.373 22.626z" />
<glyph unicode="&#xe943;" glyph-name="atom" d="M533.868 553.3c-75.746 0-137.37-61.624-137.37-137.37s61.624-137.37 137.37-137.37c75.746 0 137.371 61.624 137.371 137.37s-61.625 137.37-137.371 137.37zM753.669 863.804c-14.589 13.059-33.831 21.018-54.906 21.018-45.447 0-82.423-36.975-82.423-82.422 0-2.077 0.102-4.131 0.254-6.169-26.653-15.863-53.146-33.078-79.262-51.473-57.342 41.341-114.515 75.117-168.82 99.348-118.095 52.69-210.76 54.080-260.925 3.914-42.482-42.483-48.334-113.477-17.266-206.084-15.576-15.002-25.297-36.046-25.297-59.329 0-45.447 36.975-82.423 82.423-82.423 3.359 0 6.663 0.225 9.918 0.618 15.992-26.845 33.625-53.853 52.591-80.627-41.973-58.068-76.546-116.194-101.705-171.638-54.828-120.835-57.434-214.964-7.34-265.062 66.446-66.45 187.649-29.066 272.348 10.941 51.877 24.513 106.94 57.761 161.806 97.256 112.886-82.243 332.626-207.242 431.308-108.56 50.247 50.247 48.443 144.447-5.088 265.25-24.403 55.064-58.006 112.59-98.871 169.948 41.047 56.981 74.705 113.799 99.021 167.823 53.453 118.775 55.288 211.795 5.159 261.923-42.969 42.973-118.146 48.38-212.924 15.748zM206.694 525.392c14.332 14.836 23.175 35.006 23.175 57.214 0 45.447-36.975 82.423-82.423 82.423-2.276 0-4.525-0.117-6.755-0.301-21.465 67.13-19.611 119.077 5.748 144.435 31.978 31.978 106.625 26.282 199.682-15.239 46.489-20.742 95.356-49.045 144.692-83.487-45.598-35.204-89.575-73.834-130.674-114.935-41.837-41.837-80.571-85.325-115.331-129.263-13.537 19.693-26.284 39.467-38.114 59.153zM349.791 44.103c-100.048-47.262-176.6-55.201-210.025-21.772-31.795 31.791-24.87 107.867 18.523 203.5 21.332 47.014 50.76 97.193 86.215 147.749 35.597-45.956 74.684-90.48 115.632-131.427 41.987-41.988 85.446-80.817 129.178-115.625-47.497-33.233-94.813-61.306-139.523-82.424zM398.992 281.006c-43.047 43.047-83.926 90.161-120.577 138.65 36.074 46.806 76.792 93.21 120.577 136.995 47.766 47.766 94.843 87.443 137.974 119.877 45.889-35.4 91.676-75.715 135.838-119.877 44.097-44.1 85.005-90.993 121.096-138.372-35.765-46.393-76.498-92.67-121.096-137.272-43.671-43.67-90.335-84.515-137.587-120.805-44.565 34.702-90.405 74.986-136.224 120.805zM911.053 226.1c42.417-95.721 48.569-172.033 16.463-204.139-46.797-46.797-184.71-10.319-346.57 104.235 44.988 35.336 89.197 74.441 130.713 115.955 42.155 42.154 81.051 85.858 115.828 129.89 34.422-49.825 62.921-99.363 83.566-145.941zM911.321 608.683c-20.858-46.353-49.136-95.030-83.44-144.16-34.903 44.616-73.939 88.696-116.222 130.98-41.623 41.623-84.741 80.034-128.176 114.386 19.99 13.651 38.65 25.524 55.598 35.753 15.024-15.79 36.214-25.665 59.681-25.665 45.447 0 82.423 36.975 82.423 82.423 0 4.185-0.319 8.299-0.923 12.317 67.862 21.695 121.992 19.965 147.474-5.515 31.886-31.883 25.75-106.843-16.416-200.519z" />
<glyph unicode="&#xe944;" glyph-name="calendar" d="M810.667 789.333h-85.333v42.667c0 11.316-4.497 22.168-12.497 30.17s-18.854 12.497-30.17 12.497c-11.315 0-22.17-4.495-30.17-12.497s-12.497-18.854-12.497-30.17v-42.667h-256v42.667c0 11.316-4.495 22.168-12.497 30.17s-18.854 12.497-30.17 12.497c-11.316 0-22.168-4.495-30.17-12.497s-12.497-18.854-12.497-30.17v-42.667h-85.333c-33.948 0-66.505-13.486-90.51-37.49s-37.49-56.562-37.49-90.51v-512c0-33.946 13.486-66.505 37.49-90.509s56.562-37.491 90.51-37.491h597.333c33.946 0 66.505 13.487 90.509 37.491s37.491 56.563 37.491 90.509v512c0 33.948-13.487 66.505-37.491 90.51s-56.563 37.49-90.509 37.49zM853.333 149.333c0-11.315-4.497-22.17-12.497-30.17s-18.854-12.497-30.17-12.497h-597.333c-11.316 0-22.168 4.497-30.17 12.497s-12.497 18.854-12.497 30.17v298.667h682.667v-298.667zM853.333 533.333h-682.667v128c0 11.316 4.495 22.168 12.497 30.17s18.854 12.497 30.17 12.497h85.333v-42.667c0-11.316 4.495-22.168 12.497-30.17s18.854-12.497 30.17-12.497c11.316 0 22.168 4.495 30.17 12.497s12.497 18.854 12.497 30.17v42.667h256v-42.667c0-11.316 4.497-22.168 12.497-30.17s18.854-12.497 30.17-12.497c11.315 0 22.17 4.495 30.17 12.497s12.497 18.854 12.497 30.17v42.667h85.333c11.315 0 22.17-4.495 30.17-12.497s12.497-18.854 12.497-30.17v-128z" />
<glyph unicode="&#xe945;" glyph-name="call" d="M95.999 761.6c12.8-163.2 102.4-694.4 729.601-729.6h6.4c54.4 0 96 41.6 99.2 96v166.4c0 28.8-16 51.2-38.4 60.8l-121.6 48c-25.6 9.6-51.2 6.4-70.4-12.8l-70.4-67.2c-124.8 22.4-220.801 118.4-243.201 243.2l67.201 67.2c16 19.2 22.4 48 12.8 70.4l-44.801 118.4c-9.6 25.6-35.2 41.6-60.8 41.6h-176c-54.4-3.2-92.8-51.2-89.6-102.4zM159.999 768c0 19.2 12.8 32 32 32h169.6l44.8-118.4-89.6-92.8 3.2-16c0-3.2 38.4-281.6 316.801-316.8l12.8-3.2 92.8 92.8 121.6-48v-172.8c-3.2-16-16-28.8-35.2-28.8-560.001 32-652.801 480-668.801 668.8v3.2zM640 768v64h256v-256h-64v147.2l-211.2-211.2-44.8 44.8 211.2 211.2h-147.2z" />
<glyph unicode="&#xe946;" glyph-name="camera" d="M989.932 725.414c-20.441 21.414-48.669 34.068-80.791 34.068h-161.582v1.947c0 24.335-9.734 47.696-26.281 63.27-16.548 16.548-38.935 26.281-63.27 26.281h-292.015c-25.308 0-47.696-9.734-64.243-26.281s-26.281-38.935-26.281-63.27v-1.947h-160.608c-32.122 0-60.35-12.654-80.791-34.068-20.441-20.441-34.068-49.643-34.068-80.791v-484.745c0-32.122 12.654-60.35 34.068-80.791 20.441-20.441 49.643-34.068 80.791-34.068h794.281c32.122 0 60.35 12.654 80.791 34.068 20.441 20.441 34.068 49.643 34.068 80.791v484.745c0 32.122-12.654 60.35-34.068 80.791zM973.384 159.878h-0.973c0-17.521-6.814-33.095-18.494-44.776s-27.255-18.494-44.776-18.494h-794.281c-17.521 0-33.095 6.814-44.776 18.494s-18.494 27.255-18.494 44.776v484.745c0 17.521 6.814 33.095 18.494 44.776s27.255 18.494 44.776 18.494h187.863c14.601 0 26.281 11.681 26.281 26.281v28.228c0 10.707 3.894 20.441 10.707 27.255s16.548 10.707 27.255 10.707h291.042c10.707 0 20.441-3.894 27.255-10.707s10.707-16.548 10.707-27.255v-28.228c0-14.601 11.681-26.281 26.281-26.281h187.863c17.521 0 33.095-6.814 44.776-18.494s18.494-27.255 18.494-44.776v-484.745zM512 641.703c-66.19 0-126.54-27.255-169.369-70.084-43.802-43.802-70.084-103.179-70.084-169.369s27.255-126.54 70.084-169.369c43.802-43.802 103.179-70.084 169.369-70.084s126.54 27.255 169.369 70.084c43.802 43.802 70.084 103.179 70.084 169.369s-27.255 126.54-70.084 169.369c-42.829 42.829-103.179 70.084-169.369 70.084zM644.38 268.897c-34.068-33.095-80.791-54.51-132.38-54.51s-98.312 21.414-132.38 54.51c-34.068 34.068-54.51 80.791-54.51 132.38s21.414 98.312 54.51 132.38c34.068 34.068 80.791 54.51 132.38 54.51s98.312-21.414 132.38-54.51c34.068-34.068 54.51-80.791 54.51-132.38 0.973-51.589-20.441-98.312-54.51-132.38zM906.221 594.981c0-26.342-21.354-47.696-47.696-47.696s-47.696 21.354-47.696 47.696c0 26.342 21.354 47.696 47.696 47.696s47.696-21.354 47.696-47.696z" />
<glyph unicode="&#xe947;" glyph-name="checkmark" d="M702.080 641.92c8.956 8.879 21.047 13.875 33.66 13.91s24.73-4.895 33.737-13.724c9.003-8.829 14.174-20.848 14.387-33.458 0.218-12.61-4.54-24.797-13.239-33.928l-255.488-319.36c-4.39-4.727-9.69-8.525-15.582-11.157-5.892-2.637-12.254-4.058-18.705-4.177-6.455-0.119-12.864 1.067-18.85 3.482-5.982 2.411-11.422 6.007-15.983 10.573l-169.28 169.344c-4.716 4.395-8.498 9.694-11.122 15.582s-4.034 12.245-4.148 18.688c-0.113 6.447 1.072 12.847 3.486 18.825s6.007 11.405 10.565 15.966c4.558 4.557 9.987 8.149 15.965 10.564s12.378 3.601 18.824 3.486c6.445-0.115 12.801-1.523 18.689-4.147s11.187-6.409 15.581-11.123l134.016-133.952 222.272 283.2c0.397 0.496 0.823 0.966 1.28 1.408h-0.064z" />
<glyph unicode="&#xe948;" glyph-name="chevron-down" d="M180.054 619.949c6 5.993 14.133 9.359 22.613 9.359s16.614-3.366 22.613-9.359l286.719-286.679 286.72 286.722c6.037 5.826 14.123 9.048 22.515 8.971 8.388-0.077 16.414-3.446 22.345-9.382s9.293-13.964 9.361-22.354c0.068-8.39-3.162-16.472-8.994-22.505l-309.333-309.335c-5.999-5.99-14.131-9.357-22.613-9.357-8.478 0-16.614 3.366-22.613 9.357l-309.332 309.335c-2.973 2.972-5.332 6.5-6.942 10.384s-2.438 8.047-2.438 12.25c0 4.204 0.829 8.367 2.438 12.25s3.968 7.412 6.942 10.384v-0.043z" />
<glyph unicode="&#xe949;" glyph-name="close" d="M780.587 716.587c-16.614 16.613-43.546 16.613-60.16 0l-208.427-208.427-208.427 208.427c-16.613 16.613-43.547 16.613-60.16 0s-16.613-43.547 0-60.16l208.427-208.427-206.591-206.592c-17.627-17.626-17.627-46.204 0-63.829 15.599-15.599 40.889-15.599 56.488 0l210.263 210.261 208.427-208.427c16.614-16.614 43.546-16.614 60.16 0s16.614 43.546 0 60.16l-208.427 208.427 208.427 208.427c16.614 16.613 16.614 43.547 0 60.16z" />
<glyph unicode="&#xe94a;" glyph-name="copy" d="M896 578.56c-0.444 3.92-1.301 7.781-2.56 11.52v3.84c-2.052 4.387-4.787 8.419-8.107 11.947l-256 256c-3.529 3.319-7.561 6.055-11.947 8.107-1.271 0.181-2.564 0.181-3.84 0-4.335 2.486-9.122 4.081-14.080 4.693h-172.8c-33.948 0-66.505-13.486-90.51-37.49s-37.49-56.562-37.49-90.51v-42.667h-42.667c-33.948 0-66.505-13.486-90.51-37.49s-37.49-56.562-37.49-90.51v-426.667c0-33.946 13.486-66.505 37.49-90.509s56.562-37.491 90.51-37.491h341.333c33.946 0 66.505 13.487 90.509 37.491s37.491 56.563 37.491 90.509v42.667h42.667c33.946 0 66.505 13.487 90.509 37.491s37.491 56.563 37.491 90.509v258.56zM640 729.173l110.507-110.507h-67.84c-11.315 0-22.17 4.495-30.17 12.497s-12.497 18.854-12.497 30.17v67.84zM640 149.333c0-11.315-4.497-22.17-12.497-30.17s-18.854-12.497-30.17-12.497h-341.333c-11.316 0-22.168 4.497-30.17 12.497s-12.497 18.854-12.497 30.17v426.667c0 11.316 4.495 22.168 12.497 30.17s18.854 12.497 30.17 12.497h42.667v-298.667c0-33.946 13.486-66.505 37.49-90.509s56.562-37.491 90.51-37.491h213.333v-42.667zM810.667 320c0-11.315-4.497-22.17-12.497-30.17s-18.854-12.497-30.17-12.497h-341.333c-11.316 0-22.168 4.497-30.17 12.497s-12.497 18.854-12.497 30.17v426.667c0 11.316 4.495 22.168 12.497 30.17s18.854 12.497 30.17 12.497h128v-128c0-33.948 13.487-66.505 37.491-90.51s56.563-37.49 90.509-37.49h128v-213.333z" />
<glyph unicode="&#xe94b;" glyph-name="dashboard" d="M369.812 923.427h-227.62c-28.009-0.029-54.863-11.171-74.665-30.98s-30.935-46.666-30.954-74.675v-227.548c0.019-28.009 11.152-54.866 30.954-74.675 19.802-19.81 46.655-30.95 74.665-30.98h227.62c28.009 0.030 54.863 11.17 74.664 30.98 19.802 19.809 30.933 46.666 30.955 74.675v227.548c-0.021 28.009-11.153 54.866-30.955 74.675s-46.655 30.951-74.664 30.98zM402.287 590.225c0-8.616-3.421-16.88-9.51-22.976s-14.349-9.526-22.966-9.536h-227.62c-8.617 0.010-16.877 3.439-22.966 9.536s-9.51 14.36-9.51 22.976v227.548c0 8.616 3.421 16.88 9.51 22.976s14.349 9.526 22.966 9.536h227.62c8.617-0.010 16.877-3.439 22.966-9.536s9.51-14.36 9.51-22.976v-227.548zM881.813 923.427h-227.622c-28.011-0.029-54.861-11.171-74.662-30.98s-30.938-46.666-30.955-74.675v-227.548c0.017-28.009 11.153-54.866 30.955-74.675 19.802-19.81 46.652-30.95 74.662-30.98h227.622c28.006 0.030 54.861 11.17 74.662 30.98s30.933 46.666 30.955 74.675v227.548c-0.021 28.009-11.153 54.866-30.955 74.675s-46.656 30.951-74.662 30.98zM914.287 590.225c0-8.616-3.422-16.88-9.51-22.976s-14.349-9.526-22.963-9.536h-227.622c-8.614 0.010-16.875 3.439-22.967 9.536-6.089 6.096-9.506 14.36-9.506 22.976v227.548c0 8.616 3.418 16.88 9.506 22.976 6.093 6.096 14.353 9.526 22.967 9.536h227.622c8.614-0.010 16.875-3.439 22.963-9.536s9.51-14.36 9.51-22.976v-227.548zM881.813 411.426h-227.622c-28.011-0.030-54.861-11.17-74.662-30.98-19.802-19.806-30.938-46.665-30.955-74.675v-227.546c0.017-28.011 11.153-54.865 30.955-74.675s46.652-30.95 74.662-30.98h227.622c28.006 0.030 54.861 11.17 74.662 30.98s30.933 46.665 30.955 74.675v227.546c-0.021 28.011-11.153 54.869-30.955 74.675-19.802 19.81-46.656 30.95-74.662 30.98zM914.287 78.225c0-8.619-3.422-16.879-9.51-22.976s-14.349-9.527-22.963-9.536h-227.622c-8.614 0.009-16.875 3.439-22.967 9.536-6.089 6.097-9.506 14.357-9.506 22.976v227.546c0 8.619 3.418 16.883 9.506 22.976 6.093 6.097 14.353 9.527 22.967 9.536h227.622c8.614-0.009 16.875-3.439 22.963-9.536 6.089-6.093 9.51-14.357 9.51-22.976v-227.546zM369.812 411.426h-227.62c-28.009-0.030-54.863-11.17-74.665-30.98-19.802-19.806-30.935-46.665-30.954-74.675v-227.546c0.019-28.011 11.152-54.865 30.954-74.675s46.655-30.95 74.665-30.98h227.62c28.009 0.030 54.863 11.17 74.664 30.98s30.933 46.665 30.955 74.675v227.546c-0.021 28.011-11.153 54.869-30.955 74.675-19.802 19.81-46.655 30.95-74.664 30.98zM402.287 78.225c0-8.619-3.421-16.879-9.51-22.976s-14.349-9.527-22.966-9.536h-227.62c-8.617 0.009-16.877 3.439-22.966 9.536s-9.51 14.357-9.51 22.976v227.546c0 8.619 3.421 16.883 9.51 22.976 6.089 6.097 14.349 9.527 22.966 9.536h227.62c8.617-0.009 16.877-3.439 22.966-9.536 6.089-6.093 9.51-14.357 9.51-22.976v-227.546z" />
<glyph unicode="&#xe94c;" glyph-name="delete" d="M512 885.333c35.418 0.002 69.495-13.549 95.241-37.874s41.207-57.58 43.213-92.942l0.213-7.851h224c8.107-0.003 15.91-3.082 21.837-8.617 5.922-5.535 9.527-13.113 10.078-21.201 0.555-8.089-1.984-16.086-7.1-22.375s-12.433-10.402-20.463-11.507l-4.352-0.299h-33.963l-54.613-555.52c-2.735-27.695-15.228-53.517-35.243-72.853-20.015-19.332-46.255-30.925-74.027-32.704l-7.509-0.256h-314.624c-27.842 0-54.776 9.903-75.989 27.934s-35.323 43.021-39.808 70.498l-0.981 7.424-54.656 555.477h-33.92c-7.733 0-15.204 2.801-21.032 7.884s-9.618 12.104-10.67 19.764l-0.299 4.352c0 7.733 2.801 15.204 7.884 21.032s12.104 9.618 19.764 10.67l4.352 0.299h224c0 36.777 14.609 72.047 40.614 98.052s61.274 40.614 98.052 40.614zM776.405 682.667h-528.853l54.059-549.205c1.197-12.254 6.597-23.718 15.284-32.444s20.126-14.178 32.375-15.428l5.419-0.256h314.624c25.6 0 47.317 18.133 52.267 42.752l0.853 5.376 53.931 549.205h0.043zM586.667 565.333c7.731 0 15.202-2.801 21.030-7.884s9.621-12.104 10.671-19.764l0.299-4.352v-298.667c-0.004-8.107-3.081-15.91-8.619-21.837-5.534-5.922-13.111-9.527-21.201-10.078-8.090-0.555-16.085 1.984-22.374 7.1s-10.402 12.433-11.507 20.463l-0.299 4.352v298.667c0 8.487 3.371 16.626 9.374 22.627 5.999 6.001 14.14 9.373 22.626 9.373zM437.333 565.333c7.731 0 15.202-2.801 21.030-7.884s9.621-12.104 10.671-19.764l0.299-4.352v-298.667c-0.004-8.107-3.081-15.91-8.619-21.837-5.534-5.922-13.111-9.527-21.201-10.078-8.090-0.555-16.085 1.984-22.374 7.1s-10.402 12.433-11.507 20.463l-0.299 4.352v298.667c0 8.487 3.372 16.626 9.373 22.627s14.141 9.373 22.627 9.373zM512 821.333c-18.739-0.001-36.791-7.047-50.577-19.741s-22.293-30.106-23.834-48.782l-0.256-6.144h149.333c0 19.803-7.868 38.795-21.871 52.797s-32.994 21.869-52.796 21.869z" />
<glyph unicode="&#xe94d;" glyph-name="disable" d="M942.199 473.801c-35.153 74.059-76.983 134.459-125.5 181.199l-50.88-50.88c41.489-39.65 77.632-91.518 108.881-156.12-83.2-172.198-201.301-253.999-362.701-253.999-48.448 0-93.069 7.458-133.869 22.379l-55.13-55.13c56.666-26.167 119.666-39.249 188.999-39.249 192.201 0 335.599 100.1 430.199 300.301 3.806 8.051 5.777 16.845 5.777 25.749s-1.971 17.698-5.777 25.749zM878.63 794.44l-42.628 42.68c-0.747 0.744-1.626 1.334-2.598 1.737s-2.014 0.61-3.063 0.61c-1.050 0-2.091-0.207-3.063-0.61s-1.852-0.993-2.594-1.737l-109.372-109.32c-60.301 30.8-128.068 46.2-203.311 46.2-192.199 0-335.599-100.1-430.199-300.302-3.802-8.051-5.775-16.845-5.775-25.749s1.972-17.698 5.775-25.749c37.793-79.599 83.293-143.403 136.5-191.411l-105.82-105.788c-1.499-1.502-2.341-3.537-2.341-5.658s0.842-4.151 2.341-5.653l42.69-42.688c1.5-1.502 3.534-2.342 5.655-2.342s4.155 0.841 5.655 2.342l712.15 712.118c0.742 0.743 1.335 1.625 1.737 2.597s0.61 2.012 0.61 3.063c0 1.051-0.209 2.092-0.61 3.063s-0.994 1.853-1.737 2.596zM149.3 448c83.3 172.2 201.4 254 362.7 254 54.541 0 104.132-9.36 149.12-28.39l-70.298-70.3c-33.297 17.764-71.415 24.357-108.74 18.806s-71.879-22.952-98.563-49.635c-26.683-26.683-44.084-61.236-49.635-98.561s1.042-75.447 18.805-108.74l-83.42-83.422c-46.17 40.751-85.97 95.962-119.97 166.242zM396 448c0.017 17.634 4.195 35.012 12.191 50.731 7.997 15.714 19.589 29.325 33.831 39.718 14.246 10.394 30.741 17.283 48.145 20.105 17.408 2.822 35.234 1.498 52.032-3.864l-140.889-140.891c-3.532 11.059-5.323 22.596-5.31 34.202zM507.998 336c-3.46 0-6.869 0.162-10.249 0.469l-52.821-52.817c31.77-12.169 66.385-14.874 99.657-7.787s63.782 23.659 87.838 47.714c24.055 24.055 40.627 54.562 47.71 87.834 7.087 33.276 4.382 67.887-7.782 99.657l-52.821-52.821c0.311-3.379 0.469-6.788 0.469-10.249 0.009-14.711-2.88-29.278-8.508-42.871-5.628-13.589-13.875-25.941-24.277-36.343s-22.75-18.65-36.343-24.277c-13.594-5.623-28.16-8.516-42.871-8.508z" />
<glyph unicode="&#xe94e;" glyph-name="dna" d="M895.89 630.967c-0.181-16.327-2.473-32.175-6.593-47.289l-241.335 238.408c15.807 4.494 32.442 6.996 49.618 7.187l-0.615 55.564c-134.219-1.489-243.028-111.669-242.556-245.544l0.215-195.646-195.582 0.215c-0.295 0.002-0.57 0.002-0.865 0.002-133.543 0-243.262-108.638-244.746-242.558l55.563-0.615c0.182 16.348 2.451 32.209 6.544 47.33l241.332-238.402c-15.8-4.521-32.417-7.042-49.571-7.231l0.617-55.564c133.587 1.481 242.4 111.6 242.562 245.539l-0.224 195.65 195.717-0.221c133.875 0.159 243.994 108.971 245.475 242.558l-55.556 0.617zM510.191 443.583l-0.121 109.892 111.369-110.018-111.249 0.126zM258.246 388.296c0.221 0 0.448-0.002 0.669-0.002l5.375-0.006 190.612-188.3 0.009-7.626c-0.028-23.111-4.247-45.308-11.921-65.867l-252.293 249.238c21.010 8.107 43.789 12.562 67.549 12.562zM370.56 34.69l-270.721 267.433c11.156 17.065 24.983 32.221 40.862 44.892l274.187-270.861c-12.473-16.061-27.454-30.074-44.328-41.464zM454.813 278.186l-111.366 110.015 111.24-0.126 0.126-109.889zM700.599 443.364l-190.614 188.303-0.009 7.753c-0.081 23.144 4.072 45.366 11.712 65.94l252.307-249.249c-21.157-8.201-44.101-12.723-68.024-12.753l-5.372 0.006zM823.973 484.849l-274.198 270.873c12.475 16.035 27.481 30.029 44.397 41.392l270.729-267.443c-11.185-17.020-25.033-32.157-40.928-44.823z" />
<glyph unicode="&#xe94f;" glyph-name="document" d="M14.224 49.775c0-54.98 44.573-99.558 99.555-99.558h667.73l228.274 228.274v667.73c0 54.983-44.578 99.555-99.558 99.555h-796.446c-54.983 0-99.555-44.573-99.555-99.555v-796.446zM113.78 846.22h796.445v-547.555h-149.335c-54.984 0-99.556-44.572-99.556-99.555v-149.335h-547.554v796.445zM760.89 199.11h128.719l-128.719-128.719v128.719zM263.113 298.665v-99.555h298.667v99.555h-298.667zM263.113 398.221v99.555h497.778v-99.555h-497.778zM263.113 696.887v-99.555h497.778v99.555h-497.778z" />
<glyph unicode="&#xe950;" glyph-name="download" d="M223.999 128h576.001c7.996 0.013 15.71-2.965 21.619-8.354 5.909-5.385 9.587-12.791 10.308-20.753 0.721-7.966-1.562-15.91-6.409-22.272-4.843-6.366-11.891-10.684-19.759-12.109l-5.76-0.512h-576.001c-7.997-0.013-15.709 2.965-21.618 8.354-5.909 5.385-9.587 12.791-10.31 20.753-0.723 7.966 1.562 15.91 6.406 22.272 4.843 6.366 11.893 10.684 19.762 12.109l5.76 0.512zM506.24 895.488l5.76 0.512c7.488 0.003 14.741-2.622 20.497-7.417 5.751-4.795 9.643-11.456 10.991-18.823l0.512-5.76v-562.688l171.648 171.584c5.295 5.299 12.279 8.576 19.742 9.254s14.925-1.284 21.090-5.542l4.48-3.712c5.291-5.303 8.555-12.292 9.22-19.755s-1.306-14.921-5.572-21.077l-3.712-4.416-226.24-226.304c-5.303-5.291-12.297-8.555-19.755-9.22-7.462-0.666-14.921 1.306-21.077 5.572l-4.48 3.648-226.241 226.304c-5.67 5.645-9.019 13.205-9.389 21.197s2.267 15.834 7.391 21.978c5.124 6.144 12.363 10.146 20.291 11.217s15.97-0.866 22.54-5.431l4.416-3.712 171.649-171.584v562.688c-0.004 7.49 2.62 14.743 7.415 20.497s11.456 9.643 18.825 10.991v0z" />
<glyph unicode="&#xe951;" glyph-name="edit" d="M800 831.008c-24.512 0-48.512-9.504-67.008-28l-324-323.008-1.984-10.014-22.016-112-9.984-46.976 47.008 9.984 121.984 24 7.006 7.006 316.002 316.992c13.244 13.278 22.259 30.18 25.911 48.575s1.779 37.46-5.389 54.79c-7.164 17.331-19.302 32.152-34.88 42.595s-33.899 16.041-52.651 16.087v-0.032zM800 768.992c7.488 0 14.878-3.84 22.016-10.976 14.238-14.272 14.238-29.76 0-44l-310.016-310.048-55.010-11.008 11.008 55.010 310.016 310.014c7.104 7.104 14.498 10.976 21.986 10.976v0.032zM128 704v-640h640v422.016l-64-64v-294.016h-512v512h294.016l64 64h-422.016z" />
<glyph unicode="&#xe952;" glyph-name="empty" d="M385.729 279.134c82.042-61.619 199.777-55.778 275.344 19.789 75.52 75.516 81.446 193.25 19.789 275.345l-295.133-295.134zM512 658.823c-116.518 0-210.824-94.292-210.824-210.823 0-46.144 14.733-90.018 41.96-126.272l295.132 295.133c-36.25 27.228-80.124 41.962-126.268 41.962zM512 960c-282.967 0-512-228.995-512-512 0-282.965 228.995-512 512-512 282.97 0 512 228.992 512 512 0 282.967-228.992 512-512 512zM703.667 256.333c-98.837-98.842-254.626-105.327-360.862-20.117l-65.066-65.067-42.592 42.594 65.066 65.062c-38.4 47.881-59.272 106.931-59.272 169.195 0 149.807 121.233 271.059 271.059 271.059 62.268 0 121.314-20.872 169.195-59.272l65.067 65.066 42.594-42.592-65.067-65.066c85.056-106.048 78.912-261.833-20.122-360.862z" />
<glyph unicode="&#xe953;" glyph-name="error-alert" d="M61.77-3.043c-8.533 0-16.917 2.238-24.314 6.493-23.344 13.429-31.382 43.24-17.953 66.582l450.221 782.655c4.293 7.465 10.489 13.659 17.952 17.953 23.345 13.428 53.153 5.391 66.582-17.953l450.224-782.655c4.254-7.397 6.495-15.779 6.495-24.313 0-26.931-21.833-48.762-48.762-48.762h-900.444zM463.226 94.481l195.048 292.571h-100.233v195.048l-192.339-292.571h97.524v-195.048z" />
<glyph unicode="&#xe954;" glyph-name="family" d="M526.018 354.697c2.576-0.774 5.236-1.159 7.896-1.159s5.32 0.386 7.897 1.159c59.056 17.716 109.728 53.229 146.532 102.695 36.804 49.468 56.259 108.205 56.259 169.862v156.819c0 15.176-12.305 27.481-27.481 27.481-34.727 0-65.947 19.295-81.476 50.352l-3.868 7.737c-4.655 9.313-14.171 15.193-24.581 15.193h-146.566c-10.409 0-19.925-5.881-24.581-15.191l-3.868-7.735c-15.529-31.061-46.749-50.356-81.476-50.356-15.176 0-27.481-12.305-27.481-27.481v-156.819c0-61.657 19.455-120.394 56.259-169.862 36.804-49.466 87.476-84.979 146.533-102.695zM378.188 759.151c41.59 7.851 77.748 33.344 99.161 70.724h113.13c21.413-37.378 57.571-62.873 99.161-70.724v-131.899c0-99.401-62.237-185.744-155.726-217.394-93.489 31.649-155.726 117.992-155.726 217.394v131.899zM508.003 539.889c7.033 0 14.067 2.682 19.431 8.050l103.637 103.636c10.732 10.732 10.732 28.132 0 38.864s-28.132 10.732-38.864 0l-84.205-84.204-32.387 32.385c-10.731 10.732-28.132 10.732-38.864 0s-10.732-28.132 0-38.864l51.818-51.818c5.367-5.368 12.401-8.050 19.434-8.050zM895.126 238.65c21.323 21.531 34.517 51.12 34.517 83.742 0 65.664-53.421 119.085-119.091 119.085-65.66 0-119.080-53.421-119.080-119.085 0-32.565 13.151-62.107 34.404-83.629-43.911-21.473-78.427-59.188-95.65-105.588-6.324 4.994-13.039 9.507-20.098 13.493 15.276 17.668 24.55 40.663 24.55 65.799 0 55.561-45.203 100.764-100.764 100.764s-100.764-45.203-100.764-100.764c0-25.136 9.274-48.131 24.55-65.799-7.059-3.986-13.774-8.499-20.098-13.493-17.223 46.4-51.741 84.115-95.65 105.588 21.254 21.521 34.405 51.064 34.405 83.629 0 65.664-53.421 119.085-119.085 119.085s-119.084-53.421-119.084-119.085c0-32.621 13.193-62.211 34.513-83.742-63.786-31.354-107.795-97.007-107.795-172.743v-91.609c0-15.179 12.304-27.483 27.481-27.483h883.054c15.179 0 27.483 12.304 27.483 27.483v91.609c0 75.737-44.008 141.389-107.796 172.743zM746.433 322.391c0 35.357 28.765 64.123 64.118 64.123 35.36 0 64.126-28.766 64.126-64.123s-28.767-64.122-64.126-64.122c-35.353 0-64.118 28.765-64.118 64.122zM488.111 212.467c0 25.255 20.547 45.802 45.802 45.802s45.802-20.547 45.802-45.802c0-25.255-20.547-45.8-45.802-45.8s-45.802 20.545-45.802 45.8zM193.148 322.391c0 35.357 28.765 64.123 64.122 64.123s64.123-28.766 64.123-64.123c0-35.357-28.766-64.122-64.123-64.122s-64.122 28.765-64.122 64.122zM119.866 65.906c0 75.76 61.64 137.401 137.405 137.401 71.264 0 130.029-53.929 136.753-124.026-10.127-20.645-15.836-43.835-15.836-68.34v-9.161h-258.322v64.126zM634.677 1.78h-201.528v9.161c0 55.564 45.203 100.762 100.764 100.762s100.764-45.198 100.764-100.762v-9.161zM947.956 1.78h-258.317v9.161c0 24.505-5.709 47.695-15.837 68.34 6.724 70.097 65.489 124.026 136.749 124.026 75.768 0 137.405-61.641 137.405-137.401v-64.126z" />
<glyph unicode="&#xe955;" glyph-name="filter" d="M426.666 277.333h170.667c10.876-0.013 21.333-4.177 29.244-11.639 7.906-7.467 12.663-17.673 13.303-28.527 0.636-10.854-2.897-21.547-9.877-29.884-6.98-8.341-16.879-13.7-27.678-14.985l-4.992-0.299h-170.667c-10.875 0.013-21.335 4.177-29.242 11.639-7.907 7.467-12.666 17.673-13.303 28.527s2.895 21.547 9.874 29.884c6.98 8.341 16.881 13.7 27.68 14.985l4.992 0.299zM341.333 490.667h341.334c10.876-0.013 21.333-4.177 29.244-11.639 7.906-7.467 12.663-17.673 13.303-28.527 0.636-10.854-2.897-21.547-9.877-29.884-6.98-8.341-16.879-13.7-27.678-14.985l-4.992-0.299h-341.334c-10.875 0.013-21.335 4.177-29.242 11.639-7.907 7.467-12.666 17.673-13.303 28.527s2.895 21.547 9.875 29.884c6.98 8.341 16.88 13.7 27.679 14.985l4.992 0.299zM213.333 704h597.334c10.876-0.012 21.333-4.176 29.244-11.642 7.906-7.465 12.663-17.668 13.303-28.524 0.636-10.857-2.897-21.546-9.877-29.885s-16.879-13.699-27.678-14.983l-4.992-0.299h-597.334c-10.875 0.012-21.335 4.176-29.242 11.642s-12.666 17.668-13.303 28.524c-0.637 10.857 2.895 21.546 9.875 29.885s16.88 13.699 27.679 14.983l4.992 0.299z" />
<glyph unicode="&#xe956;" glyph-name="hamburger" d="M102.399 755.198c-9.053 0-17.735-3.596-24.136-9.997s-9.997-15.084-9.997-24.136c0-9.053 3.596-17.735 9.997-24.136s15.083-9.998 24.136-9.998h819.201c9.050 0 17.732 3.596 24.137 9.998 6.4 6.401 9.997 15.083 9.997 24.136s-3.597 17.735-9.997 24.136c-6.404 6.401-15.087 9.997-24.137 9.997h-819.201zM68.266 448c0 9.050 3.596 17.732 9.997 24.132 6.401 6.404 15.083 10.001 24.136 10.001h819.201c9.050 0 17.732-3.597 24.137-10.001 6.4-6.4 9.997-15.083 9.997-24.132 0-9.054-3.597-17.737-9.997-24.137-6.404-6.404-15.087-9.997-24.137-9.997h-819.201c-9.053 0-17.735 3.593-24.136 9.997-6.401 6.4-9.997 15.083-9.997 24.137zM68.266 174.929c0 9.054 3.596 17.737 9.997 24.137 6.401 6.404 15.083 10.001 24.136 10.001h819.201c9.050 0 17.732-3.597 24.137-10.001 6.4-6.4 9.997-15.083 9.997-24.137 0-9.050-3.597-17.732-9.997-24.132-6.404-6.404-15.087-10.001-24.137-10.001h-819.201c-9.053 0-17.735 3.597-24.136 10.001-6.401 6.4-9.997 15.083-9.997 24.132z" />
<glyph unicode="&#xe957;" glyph-name="image" d="M170.708 874.687h682.668c47.13 0 85.331-38.205 85.331-85.333v-682.666c0-47.13-38.202-85.331-85.331-85.331h-682.668c-47.128 0-85.334 38.202-85.334 85.331v682.666c0 47.128 38.205 85.333 85.334 85.333zM170.708 789.354v-494.327l170.665 170.668 149.333-149.336 277.332 277.336 85.338-85.335v280.995h-682.668zM170.708 106.688h408.993l-238.328 238.327-170.665-170.666v-67.661zM853.376 106.688v280.992l-85.338 85.335-216.992-216.996 149.331-149.331h152.998zM597.375 618.687c0 70.692-57.308 128-128 128s-128-57.308-128-128c0-70.692 57.308-128 128-128s128 57.308 128 128zM426.708 618.687c0 23.564 19.102 42.667 42.666 42.667s42.667-19.103 42.667-42.667c0-23.564-19.103-42.666-42.667-42.666s-42.666 19.102-42.666 42.666z" />
<glyph unicode="&#xe958;" glyph-name="info" d="M512 832c-212.077 0-384-171.923-384-384 0-212.079 171.923-384 384-384 212.079 0 384 171.921 384 384 0 212.077-171.921 384-384 384zM42.667 448c0 259.206 210.128 469.333 469.333 469.333 259.204 0 469.333-210.128 469.333-469.333 0-259.204-210.129-469.333-469.333-469.333-259.206 0-469.333 210.129-469.333 469.333zM512 490.667c23.565 0 42.667-19.102 42.667-42.667v-170.667c0-23.565-19.102-42.667-42.667-42.667s-42.667 19.102-42.667 42.667v170.667c0 23.565 19.102 42.667 42.667 42.667zM512 661.333c-23.565 0-42.667-19.103-42.667-42.667s19.102-42.667 42.667-42.667h0.427c23.565 0 42.667 19.103 42.667 42.667s-19.102 42.667-42.667 42.667h-0.427z" />
<glyph unicode="&#xe959;" glyph-name="link" d="M426.625 319.981v-85.338h-170.667c-117.821 0-213.333 95.516-213.333 213.336s95.513 213.334 213.333 213.334h170.667v-85.334h-170.667c-70.692 0-128-57.308-128-128s57.308-127.998 128-127.998h170.667zM597.292 575.979v85.334h170.664c117.824 0 213.338-95.513 213.338-213.334s-95.514-213.336-213.338-213.336h-170.664v85.338h170.664c70.694 0 128 57.306 128 127.998s-57.306 128-128 128h-170.664zM298.625 490.646v-85.333h426.668v85.333h-426.668z" />
<glyph unicode="&#xe95a;" glyph-name="list" d="M85.375 703.979c0-47.128 38.205-85.333 85.334-85.333s85.333 38.205 85.333 85.333c0 47.128-38.205 85.334-85.333 85.334s-85.334-38.205-85.334-85.334zM938.707 746.646v-85.333h-597.332v85.333h597.332zM938.707 405.313v85.333h-597.332v-85.333h597.332zM341.375 149.312h597.332v85.331h-597.332v-85.331zM85.375 191.981c0-47.13 38.205-85.338 85.334-85.338s85.333 38.208 85.333 85.338c0 47.13-38.205 85.331-85.333 85.331s-85.334-38.202-85.334-85.331zM170.708 362.646c-47.128 0-85.334 38.205-85.334 85.333s38.205 85.334 85.334 85.334c47.128 0 85.333-38.205 85.333-85.334s-38.205-85.333-85.333-85.333z" />
<glyph unicode="&#xe95b;" glyph-name="math" d="M277.28 560.498h61.92v-61.92c0-1.62 1.62-2.88 3.6-2.88h43.2c1.98 0 3.6 1.26 3.6 2.97v61.83h61.92c1.62 0 2.88 1.62 2.88 3.6v43.2c0 1.98-1.26 3.6-2.97 3.6h-61.83v61.92c0 1.62-1.62 2.88-3.6 2.88h-43.2c-1.98 0-3.6-1.26-3.6-2.88v-61.92h-61.92c-1.62 0-2.88-1.62-2.88-3.6v-43.2c0-1.98 1.26-3.6 2.88-3.6zM572.48 560.498h174.24c1.619 0 2.88 1.62 2.88 3.6v43.2c0 1.98-1.261 3.6-2.97 3.6h-174.15c-1.62 0-2.88-1.62-2.88-3.6v-43.2c0-1.98 1.26-3.6 2.88-3.6zM572.48 321.998h174.24c1.619 0 2.88 1.62 2.88 3.6v43.2c0 1.98-1.261 3.6-2.97 3.6h-174.15c-1.62 0-2.88-1.62-2.88-3.6v-43.2c0-1.98 1.26-3.6 2.88-3.6zM572.48 228.397h174.24c1.619 0 2.88 1.619 2.88 3.603v43.2c0 1.978-1.261 3.597-2.97 3.597h-174.15c-1.62 0-2.88-1.619-2.88-3.597v-43.2c0-1.984 1.26-3.603 2.88-3.603zM396.35 301.299l55.080 67.409c3.87 4.68 0.63 11.79-5.309 11.79h-45.72c-2.070 0-4.050-0.9-5.31-2.61l-30.6-37.44-30.6 37.44c-0.644 0.793-1.452 1.437-2.369 1.888s-1.92 0.697-2.941 0.722h-45.81c-5.94 0-9.18-7.11-5.31-11.79l55.080-67.409-56.43-69.12c-3.96-4.678-0.72-11.789 5.22-11.789h45.72c2.070 0 4.050 0.896 5.31 2.605l31.949 39.155 31.95-39.155c1.35-1.619 3.33-2.605 5.31-2.605h45.72c5.94 0 9.18 7.11 5.31 11.789l-56.25 69.12zM843.2 807.998h-662.4c-15.93 0-28.8-12.87-28.8-28.8v-662.398c0-15.93 12.87-28.8 28.8-28.8h662.4c15.93 0 28.8 12.87 28.8 28.8v662.398c0 15.93-12.87 28.8-28.8 28.8zM810.803 149.197h-597.603v597.601h597.603v-597.601z" />
<glyph unicode="&#xe95c;" glyph-name="minus" d="M972.797 395.2h-921.6c-28.256 0-51.197 22.941-51.197 51.197 0 28.266 22.941 51.206 51.197 51.206h921.6c28.266 0 51.206-22.941 51.206-51.206 0-28.256-22.941-51.197-51.206-51.197z" />
<glyph unicode="&#xe95d;" glyph-name="more" d="M512 652.8c-16.973 0-33.254 6.743-45.257 18.745s-18.743 28.281-18.743 45.255c0 16.974 6.741 33.252 18.743 45.255s28.284 18.745 45.257 18.745c16.973 0 33.254-6.743 45.257-18.745s18.743-28.281 18.743-45.255c0-16.974-6.741-33.253-18.743-45.255s-28.284-18.745-45.257-18.745zM512 384c-16.973 0-33.254 6.741-45.257 18.743s-18.743 28.284-18.743 45.257c0 16.973 6.741 33.254 18.743 45.257s28.284 18.743 45.257 18.743c16.973 0 33.254-6.741 45.257-18.743s18.743-28.284 18.743-45.257c0-16.973-6.741-33.254-18.743-45.257s-28.284-18.743-45.257-18.743zM448 179.2c0-16.973 6.741-33.25 18.743-45.252 12.002-12.006 28.284-18.748 45.257-18.748s33.254 6.741 45.257 18.748c12.002 12.002 18.743 28.279 18.743 45.252s-6.741 33.254-18.743 45.257c-12.002 12.002-28.284 18.743-45.257 18.743s-33.254-6.741-45.257-18.743c-12.002-12.002-18.743-28.284-18.743-45.257z" />
<glyph unicode="&#xe95e;" glyph-name="naira" d="M92.843-64v955.733h174.763l449.195-673.109v673.109h174.763v-955.733h-174.763l-449.195 671.744v-671.744h-174.763zM0 342.869h984.405v-68.267h-984.405v68.267z" />
<glyph unicode="&#xe95f;" glyph-name="pause" d="M426.667 192c0-11.315-4.495-22.17-12.497-30.17s-18.854-12.497-30.17-12.497h-42.667c-11.316 0-22.168 4.497-30.17 12.497s-12.497 18.854-12.497 30.17v512c0 11.316 4.495 22.168 12.497 30.17s18.854 12.497 30.17 12.497h42.667c11.316 0 22.168-4.495 30.17-12.497s12.497-18.854 12.497-30.17v-512zM725.333 192c0-11.315-4.497-22.17-12.497-30.17s-18.854-12.497-30.17-12.497h-42.667c-11.315 0-22.17 4.497-30.17 12.497s-12.497 18.854-12.497 30.17v512c0 11.316 4.497 22.168 12.497 30.17s18.854 12.497 30.17 12.497h42.667c11.315 0 22.17-4.495 30.17-12.497s12.497-18.854 12.497-30.17v-512z" />
<glyph unicode="&#xe960;" glyph-name="plus" d="M847.983 496.017h-288.717v287.966c0 26.409-21.606 48.017-48.017 48.017s-48.017-21.608-48.017-48.017v-287.966h-287.215c-26.409 0-48.017-21.606-48.017-48.017s21.608-48.017 48.017-48.017h287.215v-287.966c0-26.411 21.606-48.017 48.017-48.017s48.017 21.606 48.017 48.017v287.966h288.717c26.411 0 48.017 21.606 48.017 48.017 0 26.406-21.606 48.017-48.017 48.017v0z" />
<glyph unicode="&#xe961;" glyph-name="resend" d="M1023.682 512.001v447.999l-150.399-150.399c-92.481 92.799-220.161 150.399-361.602 150.399-282.879 0-511.359-229.119-511.359-512.002s228.48-512.002 511.359-512.002c238.401 0 438.081 163.2 494.721 384h-133.119c-52.8-149.121-194.241-255.999-361.599-255.999-212.16 0-384 171.84-384 384s171.84 384 384 384c105.921 0 200.961-44.16 270.399-113.601l-206.4-206.4h447.999z" />
<glyph unicode="&#xe962;" glyph-name="search" d="M426.667 192c75.733 0.017 149.282 25.37 208.939 72.021l187.563-187.563 60.331 60.331-187.563 187.563c46.677 59.661 72.047 133.231 72.064 208.981 0 188.203-153.131 341.333-341.333 341.333s-341.333-153.131-341.333-341.333c0-188.203 153.131-341.333 341.333-341.333zM426.667 789.333c141.184 0 256-114.816 256-256s-114.816-256-256-256c-141.184 0-256 114.816-256 256s114.816 256 256 256z" />
<glyph unicode="&#xe963;" glyph-name="table" d="M383.958 789.313h-256c-47.128 0-85.333-38.205-85.333-85.334v-554.667c0-47.13 38.205-85.331 85.333-85.331h767.997c47.13 0 85.338 38.202 85.338 85.331v554.667c0 47.128-38.208 85.334-85.338 85.334h-511.997zM298.625 703.979v-128h-170.667v128h170.667zM383.958 575.979v128h511.997v-128h-511.997zM298.625 490.646v-128h-170.667v128h170.667zM383.958 362.646v128h511.997v-128h-511.997zM298.625 277.312v-128h-170.667v128h170.667zM383.958 149.312v128h511.997v-128h-511.997z" />
<glyph unicode="&#xe964;" glyph-name="text-align-left" d="M938.707 661.354v85.333h-853.332v-85.333h853.332zM682.707 576.021v-85.334h-597.332v85.334h597.332zM938.707 320.021v85.333h-853.332v-85.333h853.332zM682.707 149.357v85.331h-597.332v-85.331h597.332z" />
<glyph unicode="&#xe965;" glyph-name="text-align-right" d="M938.707 661.354v85.333h-853.332v-85.333h853.332zM938.707 576.021v-85.334h-597.332v85.334h597.332zM938.707 320.021v85.333h-853.332v-85.333h853.332zM938.707 149.357v85.331h-597.332v-85.331h597.332z" />
<glyph unicode="&#xe966;" glyph-name="text-bgcolor" d="M853.376 874.687h-682.668c-47.128 0-85.334-38.205-85.334-85.333v-682.666c0-47.13 38.205-85.331 85.334-85.331h682.668c47.13 0 85.331 38.202 85.331 85.331v682.666c0 47.128-38.202 85.333-85.331 85.333zM170.708 106.688v682.666h682.668v-682.666h-682.668zM631.505 320.021h-238.933l-51.197-128.002h-85.333l213.333 512.002h85.334l213.336-512.002h-85.338l-51.203 128.002zM512.028 618.687l85.339-213.333h-170.666l85.327 213.333z" />
<glyph unicode="&#xe967;" glyph-name="text-bold" d="M700.998 475.837c88.992-33.347 152.333-119.185 152.333-219.818 0-129.6-105.062-234.662-234.664-234.662h-362.667v853.331h277.333c129.604 0 234.667-105.064 234.667-234.666 0-63.916-25.555-121.863-67.002-164.184zM533.333 490.687c82.475 0 149.336 66.859 149.336 149.334s-66.861 149.333-149.336 149.333h-192v-298.667h192zM341.333 106.688h277.334c82.472 0 149.333 66.861 149.333 149.331 0 82.476-66.861 149.335-149.333 149.335h-277.334v-298.666z" />
<glyph unicode="&#xe968;" glyph-name="text-italic" d="M631.517 789.354l-151.704-682.666h160.145v-85.331h-405.333v85.331h157.773l151.704 682.666h-138.812v85.333h405.332v-85.333h-179.107z" />
<glyph unicode="&#xe969;" glyph-name="text-justify" d="M999.665 691.833v97.524h-975.237v-97.524h975.237zM853.38 594.31v-97.524h-682.666v97.524h682.666zM999.665 301.738v97.524h-975.237v-97.524h975.237zM853.38 106.691v97.524h-682.666v-97.524h682.666z" />
<glyph unicode="&#xe96a;" glyph-name="text-underline" d="M810.624 874.687h-85.331v-384c0-141.385-71.949-213.331-213.334-213.331s-213.333 71.946-213.333 213.331v384h-85.334v-384c0-188.511 110.154-298.668 298.667-298.668 188.515 0 298.666 110.157 298.666 298.668v384zM170.625 106.688v-85.331h682.668v85.331h-682.668z" />
<glyph unicode="&#xe96b;" glyph-name="upload1" d="M352 384l45.12-45.12 82.88 82.56v-389.44h64v389.44l82.88-82.56 45.12 45.12-160 160-160-160zM752 256h-16v64h16c38.191-1.527 75.426 12.181 103.509 38.106 28.087 25.924 44.723 61.943 46.251 100.134s-12.177 75.426-38.101 103.511c-25.929 28.086-61.948 44.722-100.139 46.25h-27.52l-3.2 26.24c-7.1 53.873-33.54 103.33-74.398 139.156-40.853 35.826-93.342 55.578-147.682 55.578s-106.825-19.753-147.682-55.578c-40.857-35.826-67.298-85.282-74.397-139.156l-0.64-26.24h-27.52c-38.191-1.528-74.211-18.164-100.137-46.25s-39.631-65.32-38.103-103.511c1.527-38.191 18.164-74.21 46.249-100.134s65.319-39.633 103.511-38.106h16v-64h-16c-51.315 0.324-100.699 19.61-138.657 54.14-37.958 34.534-61.81 81.882-66.971 132.937s8.733 102.218 39.012 143.649c30.278 41.431 74.804 70.207 125.016 80.795 13.815 64.431 49.306 122.177 100.554 163.601s115.151 64.021 181.045 64.021c65.894 0 129.801-22.598 181.047-64.021s86.737-99.17 100.553-163.601c50.214-10.589 94.737-39.364 125.018-80.795 30.276-41.431 44.173-92.594 39.010-143.649-5.158-51.055-29.013-98.402-66.97-132.937-37.961-34.53-87.343-53.815-138.658-54.14z" />
<glyph unicode="&#xe96c;" glyph-name="view" d="M990.080 458.88c-37.636 97.355-102.976 181.548-187.942 242.173s-185.835 95.024-290.138 98.947c-104.304-3.922-205.172-38.322-290.138-98.947s-150.305-144.818-187.943-242.173c-2.542-7.031-2.542-14.729 0-21.76 37.637-97.357 102.977-181.547 187.943-242.172s185.834-95.027 290.138-98.948c104.303 3.921 205.171 38.323 290.138 98.948s150.306 144.815 187.942 242.172c2.543 7.031 2.543 14.729 0 21.76zM512 160c-169.6 0-348.8 125.76-413.76 288 64.96 162.24 244.16 288 413.76 288s348.8-125.76 413.76-288c-64.96-162.24-244.16-288-413.76-288zM512 640c-37.973 0-75.093-11.261-106.669-32.358s-56.183-51.084-70.716-86.166c-14.532-35.085-18.334-73.69-10.926-110.933s25.695-71.454 52.546-98.308c26.852-26.85 61.064-45.137 98.307-52.544 37.244-7.411 75.849-3.61 110.933 10.923 35.081 14.532 65.067 39.142 86.165 70.716 21.099 31.578 32.358 68.698 32.358 106.671 0 50.923-20.228 99.758-56.235 135.764s-84.843 56.236-135.765 56.236zM512 320c-25.314 0-50.065 7.505-71.113 21.572-21.050 14.063-37.456 34.057-47.144 57.442-9.688 23.39-12.223 49.126-7.284 73.958 4.939 24.828 17.129 47.637 35.031 65.537 17.9 17.901 40.709 30.092 65.537 35.031 24.832 4.939 50.569 2.404 73.958-7.284 23.386-9.688 43.379-26.094 57.442-47.144 14.067-21.047 21.572-45.798 21.572-71.113 0-33.95-13.487-66.505-37.491-90.509s-56.559-37.491-90.509-37.491z" />
<glyph unicode="&#xe96d;" glyph-name="view-fill" d="M512 320c70.694 0 128 57.306 128 128s-57.306 128-128 128c-70.694 0-128-57.306-128-128s57.306-128 128-128zM990.080 458.88c-37.636 97.355-102.976 181.548-187.942 242.173s-185.835 95.024-290.138 98.947c-104.304-3.922-205.172-38.322-290.138-98.947s-150.305-144.818-187.943-242.173c-2.542-7.031-2.542-14.729 0-21.76 37.637-97.357 102.977-181.547 187.943-242.172s185.834-95.027 290.138-98.948c104.303 3.921 205.171 38.323 290.138 98.948s150.306 144.815 187.942 242.172c2.543 7.031 2.543 14.729 0 21.76zM512 240c-41.139 0-81.353 12.198-115.559 35.055s-60.865 55.339-76.608 93.346-19.862 79.829-11.836 120.179c8.026 40.346 27.836 77.408 56.925 106.498s66.153 48.899 106.499 56.925c40.35 8.026 82.172 3.907 120.179-11.837s70.49-42.403 93.346-76.608c22.857-34.206 35.055-74.419 35.055-115.558-0.085-55.138-22.025-107.994-61.018-146.987-38.989-38.989-91.844-60.928-146.982-61.013z" />
<glyph unicode="&#xe96e;" glyph-name="warning-alert" d="M511.958 831.979c-212.077 0-384-171.923-384-384 0-212.075 171.923-383.998 384-383.998 212.080 0 383.997 171.923 383.997 383.998 0 212.077-171.917 384-383.997 384zM42.625 447.979c0 259.206 210.128 469.334 469.333 469.334 259.203 0 469.334-210.128 469.334-469.334 0-259.204-210.131-469.336-469.334-469.336-259.206 0-469.333 210.131-469.333 469.336zM511.958 490.646c23.564 0 42.667-19.103 42.667-42.667v-170.667c0-23.565-19.103-42.669-42.667-42.669s-42.667 19.104-42.667 42.669v170.667c0 23.564 19.103 42.667 42.667 42.667zM511.958 661.313c-23.564 0-42.667-19.103-42.667-42.667s19.103-42.667 42.667-42.667h0.427c23.564 0 42.666 19.103 42.666 42.667s-19.102 42.667-42.666 42.667h-0.427z" />
</font>
</defs>
</svg>
